<svg xmlns="http://www.w3.org/2000/svg" xmlns:xlink="http://www.w3.org/1999/xlink" width="456" height="134" font-size="8.000000pt" font-family="Arial" fill="#000000"><polygon points="185.500000,32.500000 185.500000,24.500000 233.500000,48.500000 233.500000,56.500000 " fill="#dd2222" stroke="#000000" stroke-width="1"/><polygon points="281.500000,32.500000 281.500000,24.500000 233.500000,48.500000 233.500000,56.500000 " fill="#aa0000" stroke="#000000" stroke-width="1"/><polygon points="185.500000,24.500000 233.500000,0.500000 281.500000,24.500000 233.500000,48.500000 " fill="#ff5555" stroke="#000000" stroke-width="1"/><polygon points="273.500000,52.500000 273.500000,52.500000 297.500000,64.500000 297.500000,64.500000 " fill="#999999" stroke="#000000" stroke-width="1"/><polygon points="321.500000,52.500000 321.500000,52.500000 297.500000,64.500000 297.500000,64.500000 " fill="#666666" stroke="#000000" stroke-width="1"/><polygon points="273.500000,52.500000 297.500000,40.500000 321.500000,52.500000 297.500000,64.500000 " fill="#cccccc" stroke="#000000" stroke-width="1"/><polygon points="145.500000,52.500000 145.500000,52.500000 169.500000,64.500000 169.500000,64.500000 " fill="#999999" stroke="#000000" stroke-width="1"/><polygon points="193.500000,52.500000 193.500000,52.500000 169.500000,64.500000 169.500000,64.500000 " fill="#666666" stroke="#000000" stroke-width="1"/><polygon points="145.500000,52.500000 169.500000,40.500000 193.500000,52.500000 169.500000,64.500000 " fill="#cccccc" stroke="#000000" stroke-width="1"/><polygon points="177.500000,68.500000 177.500000,68.500000 201.500000,80.500000 201.500000,80.500000 " fill="#999999" stroke="#000000" stroke-width="1"/><polygon points="225.500000,68.500000 225.500000,68.500000 201.500000,80.500000 201.500000,80.500000 " fill="#666666" stroke="#000000" stroke-width="1"/><polygon points="177.500000,68.500000 201.500000,56.500000 225.500000,68.500000 201.500000,80.500000 " fill="#cccccc" stroke="#000000" stroke-width="1"/><polygon points="241.500000,68.500000 241.500000,68.500000 265.500000,80.500000 265.500000,80.500000 " fill="#999999" stroke="#000000" stroke-width="1"/><polygon points="289.500000,68.500000 289.500000,68.500000 265.500000,80.500000 265.500000,80.500000 " fill="#666666" stroke="#000000" stroke-width="1"/><polygon points="241.500000,68.500000 265.500000,56.500000 289.500000,68.500000 265.500000,80.500000 " fill="#cccccc" stroke="#000000" stroke-width="1"/><polygon points="113.500000,68.500000 113.500000,68.500000 137.500000,80.500000 137.500000,80.500000 " fill="#999999" stroke="#000000" stroke-width="1"/><polygon points="161.500000,68.500000 161.500000,68.500000 137.500000,80.500000 137.500000,80.500000 " fill="#666666" stroke="#000000" stroke-width="1"/><polygon points="113.500000,68.500000 137.500000,56.500000 161.500000,68.500000 137.500000,80.500000 " fill="#cccccc" stroke="#000000" stroke-width="1"/><polygon points="305.500000,68.500000 305.500000,68.500000 329.500000,80.500000 329.500000,80.500000 " fill="#999999" stroke="#000000" stroke-width="1"/><polygon points="353.500000,68.500000 353.500000,68.500000 329.500000,80.500000 329.500000,80.500000 " fill="#666666" stroke="#000000" stroke-width="1"/><polygon points="305.500000,68.500000 329.500000,56.500000 353.500000,68.500000 329.500000,80.500000 " fill="#cccccc" stroke="#000000" stroke-width="1"/><polygon points="209.500000,84.500000 209.500000,84.500000 233.500000,96.500000 233.500000,96.500000 " fill="#999999" stroke="#000000" stroke-width="1"/><polygon points="257.500000,84.500000 257.500000,84.500000 233.500000,96.500000 233.500000,96.500000 " fill="#666666" stroke="#000000" stroke-width="1"/><polygon points="209.500000,84.500000 233.500000,72.500000 257.500000,84.500000 233.500000,96.500000 " fill="#cccccc" stroke="#000000" stroke-width="1"/><polygon points="145.500000,84.500000 145.500000,84.500000 169.500000,96.500000 169.500000,96.500000 " fill="#999999" stroke="#000000" stroke-width="1"/><polygon points="193.500000,84.500000 193.500000,84.500000 169.500000,96.500000 169.500000,96.500000 " fill="#666666" stroke="#000000" stroke-width="1"/><polygon points="145.500000,84.500000 169.500000,72.500000 193.500000,84.500000 169.500000,96.500000 " fill="#cccccc" stroke="#000000" stroke-width="1"/><polygon points="285.500000,78.500000 285.500000,78.500000 297.500000,84.500000 297.500000,84.500000 " fill="#999999" stroke="#000000" stroke-width="1"/><polygon points="309.500000,78.500000 309.500000,78.500000 297.500000,84.500000 297.500000,84.500000 " fill="#666666" stroke="#000000" stroke-width="1"/><polygon points="285.500000,78.500000 297.500000,72.500000 309.500000,78.500000 297.500000,84.500000 " fill="#cccccc" stroke="#000000" stroke-width="1"/><polygon points="349.500000,78.500000 349.500000,78.500000 361.500000,84.500000 361.500000,84.500000 " fill="#999999" stroke="#000000" stroke-width="1"/><polygon points="373.500000,78.500000 373.500000,78.500000 361.500000,84.500000 361.500000,84.500000 " fill="#666666" stroke="#000000" stroke-width="1"/><polygon points="349.500000,78.500000 361.500000,72.500000 373.500000,78.500000 361.500000,84.500000 " fill="#cccccc" stroke="#000000" stroke-width="1"/><polygon points="333.500000,86.500000 333.500000,86.500000 345.500000,92.500000 345.500000,92.500000 " fill="#999999" stroke="#000000" stroke-width="1"/><polygon points="357.500000,86.500000 357.500000,86.500000 345.500000,92.500000 345.500000,92.500000 " fill="#666666" stroke="#000000" stroke-width="1"/><polygon points="333.500000,86.500000 345.500000,80.500000 357.500000,86.500000 345.500000,92.500000 " fill="#cccccc" stroke="#000000" stroke-width="1"/><polygon points="301.500000,86.500000 301.500000,86.500000 313.500000,92.500000 313.500000,92.500000 " fill="#999999" stroke="#000000" stroke-width="1"/><polygon points="325.500000,86.500000 325.500000,86.500000 313.500000,92.500000 313.500000,92.500000 " fill="#666666" stroke="#000000" stroke-width="1"/><polygon points="301.500000,86.500000 313.500000,80.500000 325.500000,86.500000 313.500000,92.500000 " fill="#cccccc" stroke="#000000" stroke-width="1"/><polygon points="365.500000,86.500000 365.500000,86.500000 377.500000,92.500000 377.500000,92.500000 " fill="#999999" stroke="#000000" stroke-width="1"/><polygon points="389.500000,86.500000 389.500000,86.500000 377.500000,92.500000 377.500000,92.500000 " fill="#666666" stroke="#000000" stroke-width="1"/><polygon points="365.500000,86.500000 377.500000,80.500000 389.500000,86.500000 377.500000,92.500000 " fill="#cccccc" stroke="#000000" stroke-width="1"/><polygon points="269.500000,86.500000 269.500000,86.500000 281.500000,92.500000 281.500000,92.500000 " fill="#999999" stroke="#000000" stroke-width="1"/><polygon points="293.500000,86.500000 293.500000,86.500000 281.500000,92.500000 281.500000,92.500000 " fill="#666666" stroke="#000000" stroke-width="1"/><polygon points="269.500000,86.500000 281.500000,80.500000 293.500000,86.500000 281.500000,92.500000 " fill="#cccccc" stroke="#000000" stroke-width="1"/><polygon points="317.500000,94.500000 317.500000,94.500000 329.500000,100.500000 329.500000,100.500000 " fill="#999999" stroke="#000000" stroke-width="1"/><polygon points="341.500000,94.500000 341.500000,94.500000 329.500000,100.500000 329.500000,100.500000 " fill="#666666" stroke="#000000" stroke-width="1"/><polygon points="317.500000,94.500000 329.500000,88.500000 341.500000,94.500000 329.500000,100.500000 " fill="#cccccc" stroke="#000000" stroke-width="1"/><polygon points="349.500000,94.500000 349.500000,94.500000 361.500000,100.500000 361.500000,100.500000 " fill="#999999" stroke="#000000" stroke-width="1"/><polygon points="373.500000,94.500000 373.500000,94.500000 361.500000,100.500000 361.500000,100.500000 " fill="#666666" stroke="#000000" stroke-width="1"/><polygon points="349.500000,94.500000 361.500000,88.500000 373.500000,94.500000 361.500000,100.500000 " fill="#cccccc" stroke="#000000" stroke-width="1"/><polygon points="285.500000,94.500000 285.500000,94.500000 297.500000,100.500000 297.500000,100.500000 " fill="#999999" stroke="#000000" stroke-width="1"/><polygon points="309.500000,94.500000 309.500000,94.500000 297.500000,100.500000 297.500000,100.500000 " fill="#666666" stroke="#000000" stroke-width="1"/><polygon points="285.500000,94.500000 297.500000,88.500000 309.500000,94.500000 297.500000,100.500000 " fill="#cccccc" stroke="#000000" stroke-width="1"/><polygon points="381.500000,94.500000 381.500000,94.500000 393.500000,100.500000 393.500000,100.500000 " fill="#999999" stroke="#000000" stroke-width="1"/><polygon points="405.500000,94.500000 405.500000,94.500000 393.500000,100.500000 393.500000,100.500000 " fill="#666666" stroke="#000000" stroke-width="1"/><polygon points="381.500000,94.500000 393.500000,88.500000 405.500000,94.500000 393.500000,100.500000 " fill="#cccccc" stroke="#000000" stroke-width="1"/><polygon points="253.500000,94.500000 253.500000,94.500000 265.500000,100.500000 265.500000,100.500000 " fill="#999999" stroke="#000000" stroke-width="1"/><polygon points="277.500000,94.500000 277.500000,94.500000 265.500000,100.500000 265.500000,100.500000 " fill="#666666" stroke="#000000" stroke-width="1"/><polygon points="253.500000,94.500000 265.500000,88.500000 277.500000,94.500000 265.500000,100.500000 " fill="#cccccc" stroke="#000000" stroke-width="1"/><polygon points="333.500000,102.500000 333.500000,102.500000 345.500000,108.500000 345.500000,108.500000 " fill="#999999" stroke="#000000" stroke-width="1"/><polygon points="357.500000,102.500000 357.500000,102.500000 345.500000,108.500000 345.500000,108.500000 " fill="#666666" stroke="#000000" stroke-width="1"/><polygon points="333.500000,102.500000 345.500000,96.500000 357.500000,102.500000 345.500000,108.500000 " fill="#cccccc" stroke="#000000" stroke-width="1"/><polygon points="301.500000,102.500000 301.500000,102.500000 313.500000,108.500000 313.500000,108.500000 " fill="#999999" stroke="#000000" stroke-width="1"/><polygon points="325.500000,102.500000 325.500000,102.500000 313.500000,108.500000 313.500000,108.500000 " fill="#666666" stroke="#000000" stroke-width="1"/><polygon points="301.500000,102.500000 313.500000,96.500000 325.500000,102.500000 313.500000,108.500000 " fill="#cccccc" stroke="#000000" stroke-width="1"/><polygon points="365.500000,102.500000 365.500000,102.500000 377.500000,108.500000 377.500000,108.500000 " fill="#999999" stroke="#000000" stroke-width="1"/><polygon points="389.500000,102.500000 389.500000,102.500000 377.500000,108.500000 377.500000,108.500000 " fill="#666666" stroke="#000000" stroke-width="1"/><polygon points="365.500000,102.500000 377.500000,96.500000 389.500000,102.500000 377.500000,108.500000 " fill="#cccccc" stroke="#000000" stroke-width="1"/><polygon points="269.500000,102.500000 269.500000,102.500000 281.500000,108.500000 281.500000,108.500000 " fill="#999999" stroke="#000000" stroke-width="1"/><polygon points="293.500000,102.500000 293.500000,102.500000 281.500000,108.500000 281.500000,108.500000 " fill="#666666" stroke="#000000" stroke-width="1"/><polygon points="269.500000,102.500000 281.500000,96.500000 293.500000,102.500000 281.500000,108.500000 " fill="#cccccc" stroke="#000000" stroke-width="1"/><polygon points="317.500000,110.500000 317.500000,110.500000 329.500000,116.500000 329.500000,116.500000 " fill="#999999" stroke="#000000" stroke-width="1"/><polygon points="341.500000,110.500000 341.500000,110.500000 329.500000,116.500000 329.500000,116.500000 " fill="#666666" stroke="#000000" stroke-width="1"/><polygon points="317.500000,110.500000 329.500000,104.500000 341.500000,110.500000 329.500000,116.500000 " fill="#cccccc" stroke="#000000" stroke-width="1"/><polygon points="349.500000,110.500000 349.500000,110.500000 361.500000,116.500000 361.500000,116.500000 " fill="#999999" stroke="#000000" stroke-width="1"/><polygon points="373.500000,110.500000 373.500000,110.500000 361.500000,116.500000 361.500000,116.500000 " fill="#666666" stroke="#000000" stroke-width="1"/><polygon points="349.500000,110.500000 361.500000,104.500000 373.500000,110.500000 361.500000,116.500000 " fill="#cccccc" stroke="#000000" stroke-width="1"/><polygon points="333.500000,118.500000 333.500000,118.500000 345.500000,124.500000 345.500000,124.500000 " fill="#999999" stroke="#000000" stroke-width="1"/><polygon points="357.500000,118.500000 357.500000,118.500000 345.500000,124.500000 345.500000,124.500000 " fill="#666666" stroke="#000000" stroke-width="1"/><polygon points="333.500000,118.500000 345.500000,112.500000 357.500000,118.500000 345.500000,124.500000 " fill="#cccccc" stroke="#000000" stroke-width="1"/><text clip-path="url(#cp-1)" x="195" y="28" stroke="#ffffff" stroke-width="2" paint-order="stroke" stroke-opacity="0.75"><tspan x="233" text-anchor="middle">COOP by Ryder</tspan></text><clipPath id="cp-1"><rect x="194" y="16" width="77" height="15"/></clipPath></svg>
